<mxfile host="app.diagrams.net" modified="2020-12-21T12:17:26.561Z" agent="5.0 (Windows NT 10.0; Win64; x64) AppleWebKit/537.36 (KHTML, like Gecko) Chrome/87.0.4280.88 Safari/537.36" etag="I1kG57JquHma_icSADp1" version="14.0.4" type="github">
  <diagram id="t7tdW2PlPcEUSD0Ht8a6" name="Page-1">
    <mxGraphModel dx="1422" dy="794" grid="1" gridSize="10" guides="1" tooltips="1" connect="1" arrows="1" fold="1" page="1" pageScale="1" pageWidth="827" pageHeight="1169" math="0" shadow="0">
      <root>
        <mxCell id="0" />
        <mxCell id="1" parent="0" />
        <mxCell id="0uJ9G0ZuqR39BJ11Hsly-1" value="Unternehmer" style="shape=umlActor;verticalLabelPosition=bottom;verticalAlign=top;html=1;" parent="1" vertex="1">
          <mxGeometry x="50" y="360" width="30" height="60" as="geometry" />
        </mxCell>
        <mxCell id="0uJ9G0ZuqR39BJ11Hsly-3" value="&lt;b&gt;Extension Points&lt;/b&gt;&lt;br&gt;EP: KeineKorrektheit" style="ellipse;whiteSpace=wrap;html=1;" parent="1" vertex="1">
          <mxGeometry x="260" y="370" width="140" height="70" as="geometry" />
        </mxCell>
        <mxCell id="0uJ9G0ZuqR39BJ11Hsly-4" value="Bankdaten ermitteln" style="ellipse;whiteSpace=wrap;html=1;" parent="1" vertex="1">
          <mxGeometry x="450" y="430" width="140" height="70" as="geometry" />
        </mxCell>
        <mxCell id="0uJ9G0ZuqR39BJ11Hsly-5" value="Externes Infosystem" style="html=1;" parent="1" vertex="1">
          <mxGeometry x="275" y="640" width="110" height="50" as="geometry" />
        </mxCell>
        <mxCell id="0uJ9G0ZuqR39BJ11Hsly-7" value="" style="endArrow=none;html=1;exitX=0.5;exitY=0.5;exitDx=0;exitDy=0;exitPerimeter=0;entryX=0;entryY=0.5;entryDx=0;entryDy=0;" parent="1" source="0uJ9G0ZuqR39BJ11Hsly-1" target="0uJ9G0ZuqR39BJ11Hsly-3" edge="1">
          <mxGeometry width="50" height="50" relative="1" as="geometry">
            <mxPoint x="390" y="430" as="sourcePoint" />
            <mxPoint x="440" y="380" as="targetPoint" />
          </mxGeometry>
        </mxCell>
        <mxCell id="0uJ9G0ZuqR39BJ11Hsly-8" value="" style="endArrow=none;html=1;exitX=0.5;exitY=0;exitDx=0;exitDy=0;entryX=0.5;entryY=1;entryDx=0;entryDy=0;" parent="1" source="0uJ9G0ZuqR39BJ11Hsly-5" target="0uJ9G0ZuqR39BJ11Hsly-3" edge="1">
          <mxGeometry width="50" height="50" relative="1" as="geometry">
            <mxPoint x="75" y="400" as="sourcePoint" />
            <mxPoint x="270" y="415" as="targetPoint" />
          </mxGeometry>
        </mxCell>
        <mxCell id="0uJ9G0ZuqR39BJ11Hsly-9" value="&amp;lt;&amp;lt;include&amp;gt;&amp;gt;" style="endArrow=open;endSize=12;dashed=1;html=1;exitX=1;exitY=1;exitDx=0;exitDy=0;" parent="1" source="0uJ9G0ZuqR39BJ11Hsly-3" target="0uJ9G0ZuqR39BJ11Hsly-4" edge="1">
          <mxGeometry width="160" relative="1" as="geometry">
            <mxPoint x="330" y="410" as="sourcePoint" />
            <mxPoint x="490" y="410" as="targetPoint" />
          </mxGeometry>
        </mxCell>
        <mxCell id="0uJ9G0ZuqR39BJ11Hsly-10" value="&amp;lt;&amp;lt;include&amp;gt;&amp;gt;" style="endArrow=open;endSize=12;dashed=1;html=1;entryX=0;entryY=0.5;entryDx=0;entryDy=0;exitX=1;exitY=0;exitDx=0;exitDy=0;" parent="1" source="0uJ9G0ZuqR39BJ11Hsly-3" target="0uJ9G0ZuqR39BJ11Hsly-11" edge="1">
          <mxGeometry width="160" relative="1" as="geometry">
            <mxPoint x="410" y="390" as="sourcePoint" />
            <mxPoint x="550" y="378.55" as="targetPoint" />
          </mxGeometry>
        </mxCell>
        <mxCell id="0uJ9G0ZuqR39BJ11Hsly-11" value="Bankeinzug&lt;br&gt;durchfÃ¼hren" style="ellipse;whiteSpace=wrap;html=1;" parent="1" vertex="1">
          <mxGeometry x="500" y="320" width="140" height="70" as="geometry" />
        </mxCell>
        <mxCell id="0uJ9G0ZuqR39BJ11Hsly-12" value="&lt;font style=&quot;font-size: 11px&quot;&gt;coll@HBRS&lt;/font&gt;" style="shape=umlFrame;whiteSpace=wrap;html=1;" parent="1" vertex="1">
          <mxGeometry x="110" y="210" width="580" height="320" as="geometry" />
        </mxCell>
        <mxCell id="AiyLqZID9tKIsZKzQ0lf-1" value="" style="line;strokeWidth=1;fillColor=none;align=left;verticalAlign=middle;spacingTop=-1;spacingLeft=3;spacingRight=3;rotatable=0;labelPosition=right;points=[];portConstraint=eastwest;" vertex="1" parent="1">
          <mxGeometry x="265" y="382" width="130" height="8" as="geometry" />
        </mxCell>
        <mxCell id="AiyLqZID9tKIsZKzQ0lf-2" value="Jobangebot&lt;br&gt;einstellen" style="text;html=1;align=center;verticalAlign=middle;resizable=0;points=[];autosize=1;" vertex="1" parent="1">
          <mxGeometry x="250" y="440" width="80" height="30" as="geometry" />
        </mxCell>
        <mxCell id="AiyLqZID9tKIsZKzQ0lf-3" value="&lt;b&gt;Nicht-korrektes Angebot&lt;br&gt;ablehnen&lt;/b&gt;" style="ellipse;whiteSpace=wrap;html=1;" vertex="1" parent="1">
          <mxGeometry x="252.5" y="220" width="155" height="50" as="geometry" />
        </mxCell>
        <mxCell id="AiyLqZID9tKIsZKzQ0lf-4" value="&amp;lt;&amp;lt;extend&amp;gt;&amp;gt;" style="endArrow=open;endSize=12;dashed=1;html=1;exitX=0.5;exitY=1;exitDx=0;exitDy=0;" edge="1" parent="1" source="AiyLqZID9tKIsZKzQ0lf-3" target="0uJ9G0ZuqR39BJ11Hsly-3">
          <mxGeometry width="160" relative="1" as="geometry">
            <mxPoint x="389.4974746830583" y="390.25126265847075" as="sourcePoint" />
            <mxPoint x="570" y="365" as="targetPoint" />
            <Array as="points" />
          </mxGeometry>
        </mxCell>
        <mxCell id="AiyLqZID9tKIsZKzQ0lf-5" value="&lt;b&gt;Condition&lt;/b&gt;:&lt;br&gt;{siehe 6.1a&lt;font face=&quot;Arial, sans-serif&quot;&gt;}&lt;/font&gt;&lt;br&gt;&lt;b&gt;Extension Point:&lt;/b&gt;&lt;br&gt;&lt;div&gt;&lt;span&gt;KeineKorrektheit&lt;/span&gt;&lt;/div&gt;" style="rounded=0;whiteSpace=wrap;html=1;align=left;" vertex="1" parent="1">
          <mxGeometry x="155" y="280" width="110" height="70" as="geometry" />
        </mxCell>
        <mxCell id="AiyLqZID9tKIsZKzQ0lf-6" value="" style="line;strokeWidth=1;fillColor=none;align=left;verticalAlign=middle;spacingTop=-1;spacingLeft=3;spacingRight=3;rotatable=0;labelPosition=right;points=[];portConstraint=eastwest;" vertex="1" parent="1">
          <mxGeometry x="265" y="300" width="65" height="8" as="geometry" />
        </mxCell>
        <mxCell id="AiyLqZID9tKIsZKzQ0lf-7" value="Banking Software" style="html=1;" vertex="1" parent="1">
          <mxGeometry x="717" y="330" width="110" height="50" as="geometry" />
        </mxCell>
        <mxCell id="AiyLqZID9tKIsZKzQ0lf-8" value="" style="line;strokeWidth=1;fillColor=none;align=left;verticalAlign=middle;spacingTop=-1;spacingLeft=3;spacingRight=3;rotatable=0;labelPosition=right;points=[];portConstraint=eastwest;" vertex="1" parent="1">
          <mxGeometry x="640" y="352" width="80" height="8" as="geometry" />
        </mxCell>
      </root>
    </mxGraphModel>
  </diagram>
</mxfile>
